# xmcd
#
# Track frame offsets:
#	150
#	16193
#	32252
#	48472
#	50581
#	66553
#	85535
#	102382
#	117072
#	133396
#	152113
#	152899
#	174783
#	189857
#	204508
#
# Disc length: 3162 seconds
#
# Revision: 5
# Processed by: cddbd v1.5.2PL0 Copyright (c) Steve Scherf et al.
# Submitted via: audiograbber 1.83.01
#
DISCID=be0c580f
DTITLE=Keith Urban - Graffiti U
DYEAR=2018
DGENRE=Country
TTITLE0=Coming Home (featuring Julia Michaels)
TTITLE1=Never Comin Down
TTITLE2=Same Heart
TTITLE3=My Wave (Intro)
TTITLE4=My Wave (featuring Shy Carter)
TTITLE5=Parallel Line
TTITLE6=Drop Top (featuring Kassi Ashton)
TTITLE7=Way Too Long
TTITLE8=Horses (featuring Lindsay Ell)
TTITLE9=Gemini
TTITLE10=Texas Time (Intro)
TTITLE11=Texas Time
TTITLE12=Love The Way It Hurts (So Good)
TTITLE13=Female
TTITLE14=Steal My Thunder
EXTD=YEAR: 2018
EXTT0=
EXTT1=
EXTT2=
EXTT3=
EXTT4=
EXTT5=
EXTT6=
EXTT7=
EXTT8=
EXTT9=
EXTT10=
EXTT11=
EXTT12=
EXTT13=
EXTT14=
PLAYORDER=
